<?xml version="1.0" encoding="UTF-8"?>
<svg xmlns="http://www.w3.org/2000/svg" xmlns:xlink="http://www.w3.org/1999/xlink" width="1101px" height="292px" viewBox="0 0 1101 292">
    
    <title>logo</title>
    <desc>Created with Sketch.</desc>
    <g id="Page-1" stroke="none" stroke-width="1" fill="none" fill-rule="evenodd">
        <g id="logo" fill-rule="nonzero">
            <g id="Clipped" fill="#13AA52">
                <path d="M128.442,116.34 C113.133,48.802 81.22,30.825 73.081,18.11 C68.653,11.192 64.184,0.686 64.184,0.686 C63.748,6.65 62.964,10.468 57.859,15.019 C47.619,24.146 4.129,59.592 0.468,136.33 C-2.944,207.878 53.07,252.003 60.483,256.56 C66.171,259.355 73.1,256.615 76.493,254.053 C103.473,235.523 140.384,186.123 128.442,116.34" id="Path"/>
            </g>
            <g id="Clipped" transform="translate(60.000000, 218.000000)" fill="#B8C4C2">
                <path d="M6.503,0.455 C5.095,18.168 4.085,28.478 0.5,38.583 C0.5,38.583 2.851,55.437 4.485,73.302 L10.321,73.315 C12.474,53.282 16.688,35.916 16.688,35.916 C9.153,32.195 6.79,15.994 6.503,0.455" id="Path"/>
            </g>
            <g id="Clipped" transform="translate(64.000000, 2.000000)" fill="#12924F">
                <path d="M12.702,251.916 L12.688,251.916 C5.053,248.388 2.844,231.857 2.503,216.456 C4.148,195.494 5.009,168.364 4.148,140.11 C3.749,126.753 4.342,16.37 0.858,0.211 C2.266,3.369 5.676,10.796 9.085,16.103 C17.224,28.823 49.141,46.805 64.439,114.345 C76.358,183.945 39.667,233.267 12.702,251.916" id="Path"/>
            </g>
            <g id="Clipped" transform="translate(1067.000000, 196.000000)" fill="#FFFFFF">
                <path d="M16.703,33.504 C7.383,33.504 0.117,26.233 0.117,16.915 C0.117,7.548 7.383,0.33 16.754,0.33 C25.887,0.33 33.292,7.643 33.292,16.678 C33.292,26.136 26.025,33.504 16.703,33.504 M16.754,1.816 C8.314,1.816 1.605,8.478 1.605,16.962 C1.605,25.301 8.314,32.01 16.704,32.01 C25.046,32.01 31.755,25.301 31.755,16.962 C31.754,8.438 25.23,1.816 16.754,1.816 M20.805,27.397 L16.517,18.172 L13.068,18.172 L13.068,27.397 L10.556,27.397 L10.556,6.428 L16.754,6.428 C21.362,6.428 23.276,8.478 23.276,12.298 C23.276,15.376 21.829,17.33 19.127,17.891 L23.554,27.397 L20.805,27.397 Z M13.067,15.981 L16.703,15.981 C19.641,15.981 20.756,14.957 20.756,12.298 C20.756,9.6 19.686,8.71 16.378,8.71 L13.067,8.71 L13.067,15.981 L13.067,15.981 Z" id="Shape"/>
            </g>
            <g id="Clipped" transform="translate(790.000000, 96.000000)" fill="#FFFFFF">
                <path d="M46.795,118.383 C51.283,121.974 60.252,123.453 68.164,123.453 C78.413,123.453 88.458,121.551 98.28,112.68 C108.321,103.594 115.157,89.652 115.157,67.469 C115.157,46.133 107.042,28.811 90.379,18.672 C80.977,12.758 68.801,10.431 54.915,10.431 C50.856,10.431 46.795,10.643 44.447,11.7 C43.801,12.123 42.521,13.815 42.521,14.661 C42.093,18.464 42.093,47.402 42.093,64.513 C42.093,82.047 42.093,106.551 42.521,109.512 C42.737,112.046 44.021,116.479 46.795,118.383 M4.155,0.925 C7.782,0.925 21.583,1.56 27.996,1.56 C39.959,1.56 48.29,0.925 70.719,0.925 C89.523,0.925 105.335,6.001 116.653,15.714 C130.33,27.545 137.596,44.021 137.596,64.089 C137.596,92.608 124.561,109.084 111.531,118.382 C98.496,128.098 81.619,133.592 57.478,133.592 C44.659,133.592 22.652,133.17 4.279,132.962 L4.028,132.962 C3.174,131.267 5.599,124.678 7.105,124.51 C12.071,123.946 13.417,123.752 15.724,122.804 C19.596,121.206 20.515,119.227 20.945,112.256 C21.584,99.155 21.376,83.526 21.376,65.779 C21.376,53.106 21.584,28.386 21.157,20.572 C20.515,14.025 17.748,12.336 12.187,11.064 C9.409,10.429 5.563,9.799 0.225,9.164 C-0.202,7.896 3.083,2.194 4.155,0.925" id="Shape"/>
            </g>
            <g id="Clipped" transform="translate(938.000000, 97.000000)" fill="#FFFFFF">
                <path d="M42.601,10.65 C41.747,10.858 40.675,12.976 40.675,14.033 C40.464,21.635 40.248,41.491 40.248,55.219 C40.248,55.645 40.887,56.28 41.316,56.28 C44.094,56.491 50.927,56.706 56.695,56.706 C64.819,56.706 69.522,55.645 72.082,54.378 C78.918,50.997 82.123,43.604 82.123,35.579 C82.123,17.199 69.304,10.228 50.293,10.228 C49.01,10.228 45.378,10.228 42.601,10.65 M91.096,95.153 C91.096,76.559 77.423,66.001 52.423,66.001 C51.358,66.001 43.449,65.785 41.532,66.213 C40.886,66.421 40.248,66.843 40.248,67.266 C40.248,80.578 40.033,101.911 40.675,110.362 C41.106,113.953 43.668,119.025 46.873,120.503 C50.293,122.405 57.979,122.824 63.324,122.824 C78.065,122.823 91.096,114.588 91.096,95.153 M4.015,0.299 C5.936,0.299 11.623,0.933 26.15,0.933 C39.823,0.933 50.928,0.51 64.177,0.51 C80.628,0.51 103.274,6.428 103.274,30.929 C103.274,42.972 94.728,52.689 83.619,57.337 C82.977,57.549 82.977,57.968 83.619,58.183 C99.431,62.197 113.315,71.913 113.315,90.501 C113.315,108.67 101.994,120.08 85.544,127.26 C75.499,131.697 63.11,133.174 50.502,133.174 C40.888,133.174 15.128,132.116 0.814,132.331 C-0.685,131.696 2.185,124.934 3.46,123.884 C6.88,123.673 9.52,123.425 13.151,122.363 C18.273,121.101 18.882,119.446 19.524,111.841 C19.954,105.293 19.954,81.842 19.954,65.151 C19.954,42.334 20.166,26.919 19.954,19.313 C19.736,13.395 17.603,11.492 13.541,10.439 C10.34,9.804 5.003,9.174 0.729,8.539 C-0.343,7.482 2.946,1.142 4.015,0.299" id="Shape"/>
            </g>
            <g id="Clipped" transform="translate(173.000000, 141.000000)" fill="#FFFFFF">
                <path d="M2.753,88.5 C2.396,87.931 2.02,86.254 2.097,84.227 C2.159,82.692 2.461,81.718 2.749,81.383 C6.778,80.745 8.689,80.314 10.949,79.709 C14.727,78.769 16.152,76.727 16.375,71.889 C16.994,60.499 17.031,39.133 16.805,24.107 L16.805,23.668 C16.823,22.052 16.849,19.854 14.829,18.297 C11.864,16.343 8.171,14.728 3.497,13.323 C1.707,12.792 0.718,11.85 0.773,10.75 C0.828,9.691 1.947,8.347 4.281,7.895 C10.468,7.257 26.686,3.388 33.055,0.45 C33.431,0.909 34.025,1.901 33.912,3.487 C33.861,4.15 33.806,4.85 33.744,5.571 C33.562,7.693 33.361,10.1 33.361,12.5 C33.361,13.207 34.123,13.874 34.936,13.874 C35.348,13.874 35.731,13.714 36.041,13.407 C48.171,3.902 59.022,0.508 64.607,0.508 C73.781,0.508 80.923,4.894 86.447,13.914 C86.768,14.392 87.202,14.64 87.691,14.64 C88.153,14.64 88.591,14.403 88.846,14.02 C100.003,5.561 111.054,0.508 118.444,0.508 C135.935,0.508 146.384,13.605 146.384,35.53 C146.384,41.828 146.318,49.815 146.26,57.271 C146.209,63.809 146.162,69.938 146.162,74.182 C146.162,75.21 147.536,78.065 149.611,78.634 C152.167,79.881 155.864,80.519 160.527,81.321 L160.709,81.35 C161.063,82.608 160.323,87.497 159.608,88.496 C158.452,88.484 156.852,88.404 154.854,88.303 C151.222,88.121 146.242,87.865 140.452,87.865 C128.829,87.865 122.758,88.095 116.957,88.471 C116.52,87.02 116.366,82.342 116.899,81.365 C120.278,80.73 121.956,80.304 123.983,79.703 C127.684,78.48 128.752,76.804 128.963,71.89 C129.051,68.397 129.718,37.65 128.529,30.347 C127.432,22.781 121.733,13.925 109.26,13.925 C104.633,13.925 97.159,15.85 90.035,21.254 C89.59,21.684 89.338,22.515 89.338,23.066 L89.353,23.209 C90.188,27.149 90.188,31.748 90.188,38.7 C90.188,42.664 90.166,46.867 90.144,51.043 C90.093,59.52 90.046,67.525 90.188,73.57 C90.188,77.69 92.682,78.678 94.687,79.47 C95.777,79.714 96.642,79.918 97.505,80.126 C99.183,80.53 100.922,80.949 103.496,81.361 C103.846,82.174 103.875,84.602 103.398,86.677 C103.124,87.822 102.814,88.329 102.65,88.493 C96.19,88.273 89.557,88.077 79.99,88.077 C77.091,88.077 72.356,88.205 68.177,88.313 C64.794,88.404 61.585,88.493 59.766,88.5 C59.496,88.084 59.131,86.746 59.131,84.816 C59.131,83.026 59.46,81.761 59.798,81.375 C60.695,81.208 61.548,81.058 62.369,80.913 C64.611,80.511 66.547,80.168 68.407,79.713 C71.571,78.747 72.76,76.985 72.993,72.957 C73.613,63.558 74.094,36.475 72.764,29.692 C70.5,18.809 64.305,13.293 54.351,13.293 C48.518,13.293 41.153,16.101 35.133,20.614 C34.123,21.357 33.361,23.235 33.361,24.961 C33.361,28.187 33.35,32.029 33.339,36.146 C33.295,49.747 33.248,66.678 33.58,74.003 C33.784,76.256 34.568,78.937 38.812,79.924 C39.738,80.187 41.342,80.453 43.202,80.759 C44.274,80.941 45.444,81.131 46.648,81.35 C47.078,82.513 46.815,87.079 46.075,88.5 C44.215,88.484 41.933,88.383 39.312,88.267 C35.312,88.091 30.328,87.865 24.658,87.865 C17.979,87.865 13.326,88.092 9.597,88.267 C7.092,88.387 4.922,88.488 2.753,88.5" id="Path"/>
            </g>
            <g id="Clipped" transform="translate(350.000000, 141.000000)" fill="#FFFFFF">
                <path d="M40.201,9.492 C36.31,9.492 32.683,10.509 29.981,12.361 C22.561,16.872 18.784,25.881 18.784,39.116 C18.784,63.898 31.195,81.209 48.959,81.209 C54.198,81.209 58.471,79.7 62.022,76.602 C67.48,72.146 70.375,63.048 70.375,50.314 C70.375,25.896 58.249,9.492 40.201,9.492 M43.621,90.401 C11.521,90.401 0.088,66.855 0.088,44.822 C0.088,29.427 6.381,17.397 18.795,9.051 C27.626,3.63 38.159,0.509 47.679,0.509 C72.173,0.509 89.284,18.123 89.284,43.345 C89.284,60.493 82.447,74.027 69.518,82.486 C63.312,86.292 52.55,90.401 43.621,90.401" id="Shape"/>
            </g>
            <g id="Clipped" transform="translate(676.000000, 141.000000)" fill="#FFFFFF">
                <path d="M40.992,9.492 C37.095,9.492 33.463,10.509 30.765,12.361 C23.352,16.872 19.572,25.881 19.572,39.116 C19.572,63.898 31.979,81.209 49.746,81.209 C54.989,81.209 59.259,79.7 62.81,76.597 C68.268,72.146 71.163,63.048 71.163,50.314 C71.163,25.899 59.04,9.492 40.992,9.492 M44.409,90.401 C12.309,90.401 0.875,66.855 0.875,44.826 C0.875,29.425 7.172,17.397 19.587,9.051 C28.414,3.626 38.95,0.509 48.467,0.509 C72.964,0.509 90.075,18.127 90.075,43.342 C90.075,60.496 83.235,74.03 70.306,82.483 C64.101,86.292 53.342,90.401 44.409,90.401" id="Shape"/>
            </g>
            <g id="Clipped" transform="translate(572.000000, 141.000000)" fill="#FFFFFF">
                <path d="M36.924,8.647 C27.028,8.647 20.633,16.459 20.633,28.554 C20.633,40.76 26.135,55.013 41.627,55.013 C44.292,55.013 49.111,53.827 51.501,51.196 C55.1,47.889 57.451,41.052 57.451,33.833 C57.451,18.062 49.772,8.647 36.924,8.647 M35.644,92.089 C31.929,92.089 29.227,93.172 27.609,94.08 C19.78,99.098 16.149,104.11 16.149,109.886 C16.149,115.333 18.264,119.657 22.803,123.503 C28.305,128.163 35.717,130.427 45.474,130.427 C64.655,130.427 73.26,120.114 73.26,109.886 C73.26,102.77 69.687,97.999 62.344,95.302 C56.682,93.231 47.22,92.089 35.644,92.089 M36.924,141.104 C25.403,141.104 17.101,138.671 10.006,133.213 C3.11,127.891 0.019,119.989 0.019,114.531 C0.019,112.959 0.387,108.905 3.796,105.029 C5.805,102.747 10.454,98.478 21.199,91.087 C21.522,90.963 21.76,90.635 21.76,90.241 C21.76,89.804 21.472,89.446 21.082,89.362 C12.229,85.972 9.557,80.408 8.755,77.389 C8.744,77.283 8.704,77.108 8.664,76.921 C8.412,75.736 8.172,74.621 9.775,73.468 C11.014,72.586 13.003,71.406 15.117,70.162 C18.226,68.32 21.753,66.238 23.707,64.565 C24.017,64.262 24.141,63.821 24.068,63.379 C23.991,62.931 23.732,62.563 23.349,62.369 C10.249,57.968 3.65,48.233 3.65,33.409 C3.65,23.838 8.061,15.189 15.752,9.673 C21.023,5.509 34.255,0.499 42.82,0.499 L43.322,0.503 C52.134,0.715 57.104,2.563 63.984,5.108 C67.717,6.494 71.255,7.052 76.198,7.052 C83.494,7.052 86.68,4.74 89.415,2.081 C89.576,2.413 89.948,3.455 90.115,5.858 C90.29,8.312 89.619,11.947 87.742,14.539 C86.251,16.607 82.794,18.109 79.531,18.109 C79.199,18.109 78.882,18.09 78.568,18.058 C75.211,17.726 73.628,17.238 73.613,17.23 L72.79,17.515 C72.529,17.897 72.702,18.32 72.913,18.856 C72.965,18.984 73.016,19.1 73.034,19.184 C73.461,20.891 74.222,25.881 74.222,27.282 C74.222,42.832 68.093,49.61 61.461,54.624 C55.139,59.396 47.744,62.27 39.417,63.148 L39.409,63.148 C39.237,63.148 38.447,63.221 36.853,63.36 C35.829,63.451 34.552,63.567 34.362,63.567 L34.174,63.593 C32.73,64 28.967,65.79 28.967,69.113 C28.967,71.88 30.674,75.308 38.797,75.924 C40.442,76.044 42.21,76.168 44.055,76.296 C54.777,77.043 68.169,77.974 74.473,80.109 C83.144,83.27 88.536,91.037 88.536,100.377 C88.536,114.327 78.622,127.446 62.008,135.463 C53.954,139.258 45.772,141.104 36.924,141.104" id="Shape"/>
            </g>
            <g id="Clipped" transform="translate(453.000000, 141.000000)" fill="#FFFFFF">
                <path d="M106.856,81.062 C102.156,80.427 98.732,79.79 94.677,77.89 C94.035,77.47 93.179,75.567 93.179,74.933 C92.752,68.38 92.752,49.374 92.752,36.909 C92.752,26.766 91.045,17.898 86.769,11.558 C81.643,4.374 74.383,0.15 64.98,0.15 C56.649,0.15 45.54,5.852 36.355,13.672 C36.137,13.879 34.73,15.218 34.762,13.141 C34.792,11.062 35.112,6.835 35.305,4.171 C35.502,1.51 33.905,0.255 33.905,0.255 C27.926,3.212 11.078,7.215 4.854,7.861 C0.307,8.736 -0.837,13.107 4.004,14.617 C4.004,14.628 4.052,14.635 4.077,14.643 C9.146,16.165 12.562,17.795 15.11,19.477 C17.032,20.957 16.816,23.072 16.816,24.759 C17.028,38.91 17.028,60.672 16.39,72.504 C16.175,77.152 14.892,78.841 11.472,79.687 L11.785,79.582 C9.222,80.212 7.085,80.64 3.88,81.062 C2.812,82.112 2.812,88.241 3.88,89.509 C6.017,89.509 16.915,88.878 25.884,88.878 C38.273,88.878 44.683,89.509 47.888,89.509 C49.175,88.03 49.598,82.326 48.745,81.062 C45.109,80.847 42.546,80.427 39.983,79.79 C36.567,78.947 35.71,77.256 35.502,73.457 C35.076,63.525 35.076,42.4 35.076,28.035 C35.076,24.02 36.137,22.121 37.424,21.063 C41.693,17.259 48.745,14.73 54.943,14.73 C60.918,14.73 64.98,16.629 67.97,19.16 C72.032,22.54 73.526,27.4 73.957,30.995 C74.81,39.023 74.591,55.077 74.591,69.016 C74.591,76.62 73.957,78.528 71.175,79.37 C69.895,80.005 66.475,80.64 62.417,81.062 C61.137,82.327 61.561,88.241 62.417,89.509 C67.97,89.509 74.383,88.878 83.779,88.878 C95.534,88.878 103.004,89.509 106.001,89.509 C107.282,88.029 107.705,82.534 106.856,81.062" id="Path"/>
            </g>
        </g>
    </g>
</svg>
