<svg id="visual" viewBox="0 0 900 450" width="900" height="450" xmlns="http://www.w3.org/2000/svg" xmlns:xlink="http://www.w3.org/1999/xlink" version="1.1"><rect x="0" y="0" width="900" height="450" fill="#FFFFFF"></rect><defs><linearGradient id="grad1_0" x1="50%" y1="100%" x2="100%" y2="0%"><stop offset="10%" stop-color="#ffffff" stop-opacity="1"></stop><stop offset="90%" stop-color="#ffffff" stop-opacity="1"></stop></linearGradient></defs><defs><linearGradient id="grad2_0" x1="0%" y1="100%" x2="50%" y2="0%"><stop offset="10%" stop-color="#ffffff" stop-opacity="1"></stop><stop offset="90%" stop-color="#ffffff" stop-opacity="1"></stop></linearGradient></defs><g transform="translate(900, 450)"><path d="M-337.5 0C-333.8 -67.8 -330 -135.6 -292.3 -168.8C-254.6 -201.9 -182.9 -200.2 -128.5 -222.6C-74.1 -244.9 -37.1 -291.2 0 -337.5L0 0Z" fill="#00BFA6"></path></g><g transform="translate(0, 0)"><path d="M337.5 0C318.5 52.8 299.4 105.6 273.7 158C247.9 210.4 215.5 262.4 168.8 292.3C122 322.1 61 329.8 0 337.5L0 0Z" fill="#00BFA6"></path></g></svg>