<svg id="visual" viewBox="0 0 900 600" width="900" height="600" xmlns="http://www.w3.org/2000/svg" xmlns:xlink="http://www.w3.org/1999/xlink" version="1.1"><rect x="0" y="0" width="900" height="600" fill="#1a1a2e"></rect><path d="M0 457L21.5 447.5C43 438 86 419 128.8 426.3C171.7 433.7 214.3 467.3 257.2 472.8C300 478.3 343 455.7 385.8 444.7C428.7 433.7 471.3 434.3 514.2 438C557 441.7 600 448.3 642.8 435C685.7 421.7 728.3 388.3 771.2 380C814 371.7 857 388.3 878.5 396.7L900 405L900 601L878.5 601C857 601 814 601 771.2 601C728.3 601 685.7 601 642.8 601C600 601 557 601 514.2 601C471.3 601 428.7 601 385.8 601C343 601 300 601 257.2 601C214.3 601 171.7 601 128.8 601C86 601 43 601 21.5 601L0 601Z" fill="#FFFFFF" stroke-linecap="round" stroke-linejoin="miter"></path></svg>