<svg id="visual" viewBox="0 0 900 450" width="900" height="450" xmlns="http://www.w3.org/2000/svg" xmlns:xlink="http://www.w3.org/1999/xlink" version="1.1"><rect x="0" y="0" width="900" height="450" fill="#1a1a2e"></rect><path d="M0 98L21.5 94.5C43 91 86 84 128.8 92.5C171.7 101 214.3 125 257.2 126.5C300 128 343 107 385.8 100.8C428.7 94.7 471.3 103.3 514.2 109.7C557 116 600 120 642.8 126.5C685.7 133 728.3 142 771.2 135.5C814 129 857 107 878.5 96L900 85L900 0L878.5 0C857 0 814 0 771.2 0C728.3 0 685.7 0 642.8 0C600 0 557 0 514.2 0C471.3 0 428.7 0 385.8 0C343 0 300 0 257.2 0C214.3 0 171.7 0 128.8 0C86 0 43 0 21.5 0L0 0Z" fill="#FFFFFF" stroke-linecap="round" stroke-linejoin="miter"></path></svg>