<svg xmlns="http://www.w3.org/2000/svg" viewBox="0 0 1440 320"><path fill="#ffffff" fill-opacity="1" d="M0,160L18.5,160C36.9,160,74,160,111,138.7C147.7,117,185,75,222,69.3C258.5,64,295,96,332,112C369.2,128,406,128,443,112C480,96,517,64,554,58.7C590.8,53,628,75,665,101.3C701.5,128,738,160,775,160C812.3,160,849,128,886,144C923.1,160,960,224,997,245.3C1033.8,267,1071,245,1108,208C1144.6,171,1182,117,1218,117.3C1255.4,117,1292,171,1329,181.3C1366.2,192,1403,160,1422,144L1440,128L1440,320L1421.5,320C1403.1,320,1366,320,1329,320C1292.3,320,1255,320,1218,320C1181.5,320,1145,320,1108,320C1070.8,320,1034,320,997,320C960,320,923,320,886,320C849.2,320,812,320,775,320C738.5,320,702,320,665,320C627.7,320,591,320,554,320C516.9,320,480,320,443,320C406.2,320,369,320,332,320C295.4,320,258,320,222,320C184.6,320,148,320,111,320C73.8,320,37,320,18,320L0,320Z"></path></svg>